<?xml version="1.0" encoding="UTF-8"?>
<svg width="170px" height="198px" viewBox="0 0 170 198" version="1.1" xmlns="http://www.w3.org/2000/svg" xmlns:xlink="http://www.w3.org/1999/xlink">
    <title>Logo/NFHS_Logo/vertical_color</title>
    <g id="Logo/NFHS_Logo/vertical_color" stroke="none" stroke-width="1" fill="none" fill-rule="evenodd">
        <g id="NFHS-Network_FC_RGB_blue-background-only">
            <path d="M92.9254323,89.3738008 L105.429478,104.566887 L38.3306355,159.705933 L22.8290748,146.975294 L92.9254323,89.3738008 Z M117.933524,119.760712 L130.43757,134.953799 L69.3507421,185.152453 L53.8403196,172.429193 L117.933524,119.760712 Z M142.942354,150.146885 L130.43757,134.953799 L162.674701,108.463118 L162.674701,133.931776 L142.942354,150.146885 Z M117.933524,119.760712 L105.429478,104.566887 L162.674701,57.5258031 L162.674701,82.9944607 L117.933524,119.760712 Z" id="Shape" fill="#D82342"></path>
            <polyline id="Fill-4" fill="#002241" points="158.243785 29.9651352 158.243785 23.7223107 163.792769 4.58207657 6.2064923 4.58207657 11.756215 23.7223107 11.756215 130.603007 80.4361562 74.1652178 92.9254323 89.3738008 158.243785 35.6980552 158.243785 29.9651352"></polyline>
            <path d="M105.429478,104.566887 L117.933524,119.760712 L53.8403196,172.429193 L38.3306355,159.705933 L105.429478,104.566887 Z M69.3507421,185.152453 L130.43757,134.953799 L142.942354,150.146885 L127.437101,162.888593 L84.8235018,197.845459 L69.3507421,185.152453 Z M130.43757,134.953799 L117.933524,119.760712 L162.674701,82.9944607 L162.674701,108.463118 L130.43757,134.953799 Z M7.32529867,24.3502828 L0.309681187,0.154541494 L169.68958,0.154541494 L162.674701,24.3502828 L162.674701,57.5258031 L105.429478,104.566887 L92.9254323,89.3738008 L158.243785,35.6980552 L158.243785,23.7223107 L163.792769,4.58207657 L6.2064923,4.58207657 L11.756215,23.7223107 L11.756215,130.603007 L80.4361562,74.1652178 L92.9254323,89.3738008 L22.8290748,146.975294 L22.820213,146.982673 L7.32677564,134.246131 L7.31052895,134.259414 L7.32529867,133.9089 L7.32529867,24.3502828 Z M156.966913,148.499435 L156.966913,149.957739 L157.525696,149.957739 C158.156913,149.957739 158.472522,149.712348 158.472522,149.221565 C158.472522,148.971739 158.387522,148.789174 158.216783,148.67313 C158.046783,148.557826 157.780696,148.499435 157.416304,148.499435 L156.966913,148.499435 Z M159.794087,152.805609 L158.588565,152.805609 L158.09113,151.620043 C157.83687,151.029478 157.562652,150.734565 157.267,150.734565 L156.966913,150.734565 L156.966913,152.805609 L155.986087,152.805609 L155.986087,147.681957 L157.525696,147.681957 C158.165783,147.681957 158.658783,147.80687 159.004696,148.056696 C159.34987,148.306522 159.522087,148.647261 159.522087,149.078913 C159.522087,149.428522 159.416391,149.72713 159.205,149.974739 C158.993609,150.222348 158.681696,150.389391 158.268522,150.47513 L158.268522,150.495826 C158.554565,150.554957 158.838391,150.870565 159.12,151.442652 L159.794087,152.805609 Z M157.689783,146.87113 C156.753304,146.87113 155.952826,147.207435 155.287609,147.880043 C154.622391,148.551913 154.289783,149.356087 154.289783,150.291826 C154.289783,151.226826 154.622391,152.025087 155.287609,152.68587 C155.952826,153.347391 156.753304,153.677783 157.689783,153.677783 C158.629217,153.677783 159.428957,153.347391 160.087522,152.68587 C160.746087,152.025087 161.075739,151.226826 161.075739,150.291826 C161.075739,149.356087 160.746087,148.551913 160.087522,147.880043 C159.428957,147.207435 158.629217,146.87113 157.689783,146.87113 Z M157.682391,154.359261 C156.542652,154.359261 155.569217,153.961609 154.763565,153.166304 C153.957174,152.371739 153.553609,151.41087 153.553609,150.284435 C153.553609,149.162435 153.957174,148.200087 154.763565,147.395913 C155.569217,146.591739 156.542652,146.189652 157.682391,146.189652 C158.817696,146.189652 159.789652,146.591739 160.598261,147.395913 C161.40687,148.200087 161.811174,149.162435 161.811174,150.284435 C161.811174,151.41087 161.40687,152.371739 160.598261,153.166304 C159.789652,153.961609 158.817696,154.359261 157.682391,154.359261 L157.682391,154.359261 Z M107.703277,21.2185396 C107.703277,20.6938767 107.553364,20.5440784 107.029039,20.5440784 L102.118845,20.5440784 C101.59452,20.5440784 101.443869,20.6938767 101.443869,21.2185396 L101.443869,23.2404473 C101.443869,23.652946 101.556857,23.7651102 102.231834,23.9525425 L109.726728,25.8246519 C113.399958,26.7610756 115.124323,27.4724329 115.124323,31.2173897 L115.124323,36.0485684 C115.124323,39.4939286 113.474545,41.1417095 110.026554,41.1417095 L99.4204171,41.1417095 C95.9724257,41.1417095 94.3233864,39.4939286 94.3233864,36.0485684 L94.3233864,32.4534099 L101.37002,32.4534099 L101.37002,34.8501822 C101.37002,35.3741072 101.519194,35.5239055 102.044258,35.5239055 L107.403451,35.5239055 C107.928515,35.5239055 108.077689,35.3741072 108.077689,34.8501822 L108.077689,32.5655741 C108.077689,32.1538133 107.890852,32.0409112 107.290463,31.8911129 L99.795568,29.9813695 C96.1223384,29.0456837 94.3979735,28.3335885 94.3979735,24.5886317 L94.3979735,20.0201535 C94.3979735,16.5747932 96.0477513,14.9270123 99.4957427,14.9270123 L109.652141,14.9270123 C113.100133,14.9270123 114.749172,16.5747932 114.749172,20.0201535 L114.749172,23.3533494 L107.703277,23.3533494 L107.703277,21.2185396 Z M32.7809128,41.1417095 L23.8688632,41.1417095 L23.8688632,35.3696796 L25.9602557,35.3696796 L25.9602557,20.6960905 L23.8688632,20.6960905 L23.8688632,14.9247985 L32.7809128,14.9247985 L45.3772694,30.9539513 L45.3772694,20.6960905 L43.2858769,20.6960905 L43.2858769,14.9247985 L63.5647039,14.9247985 L63.5647039,20.6960905 L52.1971881,20.6960905 L52.1971881,25.0771364 L61.1528084,25.0771364 L61.1528084,30.8499043 L52.1971881,30.8499043 L52.1971881,41.1417095 L45.3772694,41.1417095 L32.7809128,25.1125567 L32.7809128,41.1417095 Z M76.5627969,41.1417095 L66.4189525,41.1417095 L66.4189525,35.3696796 L68.2467054,35.3696796 L68.2467054,20.6960905 L66.4189525,20.6960905 L66.4189525,14.9247985 L76.5627969,14.9247985 L76.5627969,20.6960905 L75.0681011,20.6960905 L75.0681011,25.0424541 L83.1057833,25.0424541 L83.1057833,20.6960905 L81.3267704,20.6960905 L81.3267704,14.9247985 L91.4706148,14.9247985 L91.4706148,20.6960905 L89.9264404,20.6960905 L89.9264404,35.3696796 L91.4706148,35.3696796 L91.4706148,41.1417095 L81.3267704,41.1417095 L81.3267704,35.3696796 L83.1057833,35.3696796 L83.1057833,30.328193 L75.0681011,30.328193 L75.0681011,35.3696796 L76.5627969,35.3696796 L76.5627969,41.1417095 Z M24.0246837,58.4194273 L24.0246837,46.5565849 L27.1115554,46.5565849 L32.8111908,53.8103632 L32.8111908,46.5565849 L35.8810773,46.5565849 L35.8810773,58.4194273 L32.8111908,58.4194273 L27.1115554,51.1663869 L27.1115554,58.4194273 L24.0246837,58.4194273 Z M45.4385638,49.1680927 L41.7697651,49.1680927 L41.7697651,51.1508905 L45.2332646,51.1508905 L45.2332646,53.7631362 L41.7697651,53.7631362 L41.7697651,55.8079195 L45.4385638,55.8079195 L45.4385638,58.4194273 L38.6836319,58.4194273 L38.6836319,46.5565849 L45.4385638,46.5565849 L45.4385638,49.1680927 Z M53.1055259,49.1680927 L53.1055259,58.4194273 L50.0201312,58.4194273 L50.0201312,49.1680927 L47.4849086,49.1680927 L47.4849086,46.5565849 L55.6407486,46.5565849 L55.6407486,49.1680927 L53.1055259,49.1680927 Z M60.6004209,46.5565849 L62.6467657,54.2191723 L65.1657416,46.5565849 L67.6226847,46.5565849 L70.1416607,54.2191723 L72.1880055,46.5565849 L75.415928,46.5565849 L71.872672,58.4194273 L68.7245059,58.4194273 L66.3938439,51.5442032 L64.063182,58.4194273 L60.9150159,58.4194273 L57.3724983,46.5565849 L60.6004209,46.5565849 Z M79.7301635,52.488744 C79.7301635,52.9602765 79.8187819,53.3956508 79.9974955,53.7948669 C80.1762091,54.1926071 80.4176941,54.5386928 80.7219503,54.8323859 C81.0262066,55.1260791 81.3799414,55.3540971 81.7846317,55.517178 C82.1885836,55.679521 82.616167,55.7606924 83.0681205,55.7606924 C83.5193355,55.7606924 83.9469189,55.679521 84.3508708,55.517178 C84.7548226,55.3540971 85.1122499,55.1260791 85.4216755,54.8323859 C85.7311012,54.5386928 85.9748016,54.1926071 86.1535152,53.7948669 C86.3329673,53.3956508 86.4215856,52.9602765 86.4215856,52.488744 C86.4215856,52.0164736 86.3329673,51.5810993 86.1535152,51.1826212 C85.9748016,50.784143 85.7311012,50.4380574 85.4216755,50.1443642 C85.1122499,49.850671 84.7548226,49.622653 84.3508708,49.46031 C83.9469189,49.2972292 83.5193355,49.2160577 83.0681205,49.2160577 C82.616167,49.2160577 82.1885836,49.2972292 81.7846317,49.46031 C81.3799414,49.622653 81.0262066,49.850671 80.7219503,50.1443642 C80.4176941,50.4380574 80.1762091,50.784143 79.9974955,51.1826212 C79.8187819,51.5810993 79.7301635,52.0164736 79.7301635,52.488744 Z M76.502241,52.488744 C76.502241,51.6069266 76.6654464,50.7870947 76.9903803,50.0262966 C77.3160526,49.2654985 77.7672676,48.6021061 78.3440252,48.0361196 C78.9215213,47.4693951 79.6120058,47.0266416 80.4147401,46.7063832 C81.2182129,46.3861248 82.1021807,46.2267336 83.0681205,46.2267336 C84.022983,46.2267336 84.9047353,46.3861248 85.7133775,46.7063832 C86.5205428,47.0266416 87.2169351,47.4693951 87.7988621,48.0361196 C88.3822661,48.6021061 88.8356965,49.2654985 89.1613689,50.0262966 C89.4863028,50.7870947 89.6487697,51.6069266 89.6487697,52.488744 C89.6487697,53.3690856 89.4863028,54.1903933 89.1613689,54.9504535 C88.8356965,55.7112516 88.3822661,56.374644 87.7988621,56.9406305 C87.2169351,57.507355 86.5205428,57.9501085 85.7133775,58.269629 C84.9047353,58.5898874 84.022983,58.7500165 83.0681205,58.7500165 C82.1021807,58.7500165 81.2182129,58.5898874 80.4147401,58.269629 C79.6120058,57.9501085 78.9215213,57.507355 78.3440252,56.9406305 C77.7672676,56.374644 77.3160526,55.7112516 76.9903803,54.9504535 C76.6654464,54.1903933 76.502241,53.3690856 76.502241,52.488744 Z M95.3173886,51.8592961 L95.8993156,51.8592961 C96.5078281,51.8592961 96.9760283,51.7338493 97.3009622,51.4814798 C97.6251575,51.2291103 97.7883629,50.8682662 97.7883629,50.3959958 C97.7883629,49.9237254 97.6251575,49.5621433 97.3009622,49.3105118 C96.9760283,49.0588802 96.5078281,48.9326954 95.8993156,48.9326954 L95.3173886,48.9326954 L95.3173886,51.8592961 Z M102.102598,58.4194273 L98.260994,58.4194273 L95.3173886,53.8568524 L95.3173886,58.4194273 L92.2305169,58.4194273 L92.2305169,46.5565849 L97.0336302,46.5565849 C97.6945752,46.5565849 98.2713328,46.6539907 98.7646415,46.8480643 C99.2579502,47.042138 99.664856,47.3070521 99.9853589,47.6428069 C100.305123,47.9785616 100.547347,48.3667089 100.709075,48.8072486 C100.872281,49.2470504 100.952776,49.7193208 100.952776,50.222584 C100.952776,51.1250632 100.734922,51.8563444 100.300692,52.4179035 C99.8649857,52.9787246 99.2217644,53.3587547 98.3710284,53.5579937 L102.102598,58.4194273 Z M107.109534,51.4497491 L110.872859,46.5565849 L114.682708,46.5565849 L109.975598,52.1736511 L115.124323,58.4194273 L111.124683,58.4194273 L107.109534,53.2746315 L107.109534,58.4194273 L104.024139,58.4194273 L104.024139,46.5565849 L107.109534,46.5565849 L107.109534,51.4497491 Z" id="Shape" fill="#FFFFFF"></path>
        </g>
    </g>
</svg>